<svg xmlns="http://www.w3.org/2000/svg" xmlns:xlink="http://www.w3.org/1999/xlink" version="1.1" viewBox="0 0 650 650" xml:space="preserve"><g transform="matrix(1 0 0 1 324.5 324.5)"><linearGradient id="SVGID_285" x1="0" x2="362.3" y1="128.025" y2="128.025" gradientTransform="matrix(1 0 0 1 11 0)" gradientUnits="userSpaceOnUse"><stop offset="0%" style="stop-color:red;stop-opacity:1"/><stop offset="100%" style="stop-color:#341414;stop-opacity:1"/></linearGradient><path style="stroke:#000;stroke-width:0;stroke-dasharray:none;stroke-linecap:butt;stroke-dashoffset:0;stroke-linejoin:miter;stroke-miterlimit:4;fill:url(#SVGID_285);fill-rule:nonzero;opacity:1" stroke-linecap="round" d="M 155.3 154.6 c 0 -22.3 18.6 -30.9 48.4 -30.9 c 43.4 0 98.5 13.3 141.9 36.7 V 26.1 C 298.3 7.2 251.1 0 203.8 0 C 88.1 0 11 60.4 11 161.4 c 0 157.9 216.8 132.3 216.8 200.4 c 0 26.4 -22.9 34.9 -54.7 34.9 c -47.2 0 -108.2 -19.5 -156.1 -45.5 v 128.5 a 396.09 396.09 0 0 0 156 32.4 c 118.6 0 200.3 -51 200.3 -153.6 c 0 -170.2 -218 -139.7 -218 -203.9 z" transform="translate(-192.15, -256.05)"/></g></svg>