<svg id="sicon" xmlns="http://www.w3.org/2000/svg" xmlns:xlink="http://www.w3.org/1999/xlink" viewBox="0 0 650 650" shape-rendering="geometricPrecision" text-rendering="geometricPrecision"><defs><filter id="sicon-s-g1-filter" x="-150%" width="400%" y="-150%" height="400%"><feGaussianBlur id="sicon-s-g1-filter-drop-shadow-0-blur" in="SourceAlpha" stdDeviation="9,9"/><feOffset id="sicon-s-g1-filter-drop-shadow-0-offset" dx="9" dy="9" result="tmp"/><feFlood id="sicon-s-g1-filter-drop-shadow-0-flood" flood-color="rgba(0,0,0,0.45)"/><feComposite id="sicon-s-g1-filter-drop-shadow-0-composite" operator="in" in2="tmp"/><feMerge id="sicon-s-g1-filter-drop-shadow-0-merge"><feMergeNode id="sicon-s-g1-filter-drop-shadow-0-merge-node-1"/><feMergeNode id="sicon-s-g1-filter-drop-shadow-0-merge-node-2" in="SourceGraphic"/></feMerge></filter><filter id="sicon-s-path1-filter" x="-150%" width="400%" y="-150%" height="400%"><feGaussianBlur id="sicon-s-path1-filter-drop-shadow-0-blur" in="SourceAlpha" stdDeviation="6,6"/><feOffset id="sicon-s-path1-filter-drop-shadow-0-offset" dx="6" dy="6" result="tmp"/><feFlood id="sicon-s-path1-filter-drop-shadow-0-flood" flood-color="rgba(0,0,0,0.45)"/><feComposite id="sicon-s-path1-filter-drop-shadow-0-composite" operator="in" in2="tmp"/><feMerge id="sicon-s-path1-filter-drop-shadow-0-merge"><feMergeNode id="sicon-s-path1-filter-drop-shadow-0-merge-node-1"/><feMergeNode id="sicon-s-path1-filter-drop-shadow-0-merge-node-2" in="SourceGraphic"/></feMerge></filter></defs><g id="sicon-s-g1" transform="translate(324.5 324.5)" filter="url(#sicon-s-g1-filter)"><path id="sicon-s-path1" d="M155.3,154.6c0-22.3,18.6-30.9,48.4-30.9c43.4,0,98.5,13.3,141.9,36.7v-134.3C298.3,7.2,251.1,0,203.8,0C88.1,0,11,60.4,11,161.4c0,157.9,216.8,132.3,216.8,200.4c0,26.4-22.9,34.9-54.7,34.9-47.2,0-108.2-19.5-156.1-45.5v128.5c49.268609,21.2551,102.342193,32.278075,156,32.4c118.6,0,200.3-51,200.3-153.6c0-170.2-218-139.7-218-203.9Z" transform="translate(-191.65-255.55)" filter="url(#sicon-s-path1-filter)" fill="#e50914" stroke-width="0"/></g></svg>
