<svg width="24" height="24" viewBox="0 0 24 24" fill="none" xmlns="http://www.w3.org/2000/svg"><path fill-rule="evenodd" clip-rule="evenodd" d="M0 4C0 3.44772 0.447715 3 1 3H23C23.5523 3 24 3.44772 24 4V16C24 16.5523 23.5523 17 23 17H19V20C19 20.3688 18.797 20.7077 18.4719 20.8817C18.1467 21.0557 17.7522 21.0366 17.4453 20.8321L11.6972 17H1C0.447715 17 0 16.5523 0 16V4ZM2 5V15H12H12.3028L12.5547 15.1679L17 18.1315V16V15H18H22V5H2ZM10 9H4V7H10V9ZM20 11H14V13H20V11ZM12 13H4V11H12V13ZM20 7H12V9H20V7Z" fill="#fff"></path></svg>