<svg id="eFThqw3k84z1" xmlns="http://www.w3.org/2000/svg" xmlns:xlink="http://www.w3.org/1999/xlink" viewBox="0 0 300 300" shape-rendering="geometricPrecision" text-rendering="geometricPrecision"><rect width="281.314168" height="281.314169" rx="0" ry="0" transform="translate(8.658453 8.213553)" fill="#e50914" stroke-width="0" stroke-linecap="round" stroke-linejoin="round"/><ellipse rx="18.822725" ry="18.822724" transform="translate(67.180014 85.215606)" stroke-width="0"/><ellipse rx="19.164956" ry="19.164956" transform="translate(205.78371 85.215606)" stroke-width="0"/><path d="M63.41547,164.27105c5.557028-10.316195,89.478812-12.380156,108.829568,0" fill="none" stroke="#000" stroke-width="9" stroke-linecap="round"/><rect width="218.343601" height="18.822724" rx="0" ry="0" transform="matrix(1 0 0 1.436363 26.454484 58.179335)" fill="#e50914" stroke-width="0"/><line x1="-20.876112" y1="-2.90897" x2="20.876113" y2="2.90897" transform="translate(69.233402 88.124569)" fill="none" stroke="#e50914" stroke-width="3"/><line x1="-11.635866" y1="-1.454481" x2="11.635867" y2="1.454482" transform="translate(74.366873 86.670088)" fill="none" stroke="#e50914" stroke-width="3"/><line x1="-16.427105" y1="-0.000004" x2="16.427104" y2="0.000004" transform="translate(79.158112 85.215603)" fill="none" stroke="#e50914" stroke-width="3"/><line x1="-2.395619" y1="0" x2="2.395619" y2="0" transform="translate(76.762493 85.215599)" fill="none" stroke="#e50914" stroke-width="3"/><line x1="-20.19165" y1="-0.727245" x2="20.19165" y2="0.727245" transform="translate(75.393566 85.942844)" fill="none" stroke="#e50914" stroke-width="3"/><line x1="-16.427105" y1="-0.000004" x2="16.427104" y2="0.000004" transform="translate(79.158112 85.215603)" fill="none" stroke="#e50914" stroke-width="3"/><line x1="-19.164956" y1="2.181725" x2="19.164956" y2="-2.181725" transform="translate(205.78371 88.851814)" fill="none" stroke="#e50914" stroke-width="3"/><line x1="-19.164956" y1="1.454485" x2="19.164956" y2="-1.454485" transform="translate(205.78371 86.670084)" fill="none" stroke="#e50914" stroke-width="3"/><line x1="-19.164956" y1="-0.363619" x2="19.164956" y2="0.363619" transform="translate(205.78371 85.579226)" fill="none" stroke="#e50914" stroke-width="3"/><line x1="-2.053388" y1="2.90897" x2="2.053388" y2="-2.90897" transform="translate(188.672142 88.124569)" fill="none" stroke="#e50914" stroke-width="3"/><line x1="-2.053388" y1="-1.454486" x2="2.053388" y2="1.454486" transform="translate(188.672142 86.670085)" fill="none" stroke="#e50914" stroke-width="3"/></svg>
