<svg xmlns="http://www.w3.org/2000/svg" xmlns:xlink="http://www.w3.org/1999/xlink" id="eFThqw3k84z1" shape-rendering="geometricPrecision" text-rendering="geometricPrecision" viewBox="0 0 300 300"><rect width="281.314" height="281.314" fill="#e50914" stroke-linecap="round" stroke-linejoin="round" stroke-width="0" rx="0" ry="0" transform="translate(8.658453 8.213553)"/><ellipse stroke-width="0" rx="18.823" ry="18.823" transform="translate(67.180014 85.215606)"/><ellipse stroke-width="0" rx="19.165" ry="19.165" transform="translate(205.78371 85.215606)"/><path fill="none" stroke="#000" stroke-linecap="round" stroke-width="9" d="M63.41547,164.27105c5.557028-10.316195,89.478812-12.380156,108.829568,0"/><rect width="218.344" height="18.823" fill="#e50914" stroke-width="0" rx="0" ry="0" transform="matrix(1 0 0 1.436363 26.454484 58.179335)"/><line x1="-20.876" x2="20.876" y1="-2.909" y2="2.909" fill="none" stroke="#e50914" stroke-width="3" transform="translate(69.233402 88.124569)"/><line x1="-11.636" x2="11.636" y1="-1.454" y2="1.454" fill="none" stroke="#e50914" stroke-width="3" transform="translate(74.366873 86.670088)"/><line x1="-16.427" x2="16.427" y1="0" y2="0" fill="none" stroke="#e50914" stroke-width="3" transform="translate(79.158112 85.215603)"/><line x1="-2.396" x2="2.396" y1="0" y2="0" fill="none" stroke="#e50914" stroke-width="3" transform="translate(76.762493 85.215599)"/><line x1="-20.192" x2="20.192" y1="-.727" y2=".727" fill="none" stroke="#e50914" stroke-width="3" transform="translate(75.393566 85.942844)"/><line x1="-16.427" x2="16.427" y1="0" y2="0" fill="none" stroke="#e50914" stroke-width="3" transform="translate(79.158112 85.215603)"/><line x1="-19.165" x2="19.165" y1="2.182" y2="-2.182" fill="none" stroke="#e50914" stroke-width="3" transform="translate(205.78371 88.851814)"/><line x1="-19.165" x2="19.165" y1="1.454" y2="-1.454" fill="none" stroke="#e50914" stroke-width="3" transform="translate(205.78371 86.670084)"/><line x1="-19.165" x2="19.165" y1="-.364" y2=".364" fill="none" stroke="#e50914" stroke-width="3" transform="translate(205.78371 85.579226)"/><line x1="-2.053" x2="2.053" y1="2.909" y2="-2.909" fill="none" stroke="#e50914" stroke-width="3" transform="translate(188.672142 88.124569)"/><line x1="-2.053" x2="2.053" y1="-1.454" y2="1.454" fill="none" stroke="#e50914" stroke-width="3" transform="translate(188.672142 86.670085)"/></svg>